<?xml version="1.0" encoding="UTF-8" standalone="no"?>
<!-- Created with Inkscape (http://www.inkscape.org/) -->

<svg
   xmlns:dc="http://purl.org/dc/elements/1.1/"
   xmlns:cc="http://creativecommons.org/ns#"
   xmlns:rdf="http://www.w3.org/1999/02/22-rdf-syntax-ns#"
   xmlns:svg="http://www.w3.org/2000/svg"
   xmlns="http://www.w3.org/2000/svg"
   xmlns:sodipodi="http://sodipodi.sourceforge.net/DTD/sodipodi-0.dtd"
   xmlns:inkscape="http://www.inkscape.org/namespaces/inkscape"
   width="36"
   height="18"
   id="svg2"
   version="1.1"
   inkscape:version="0.48.0 r9654"
   sodipodi:docname="toolbar.svg"
   inkscape:export-filename="/home/louisremi/Aptana Studio 3 Workspace/designer tools/toolbar/toolbar.png"
   inkscape:export-xdpi="90"
   inkscape:export-ydpi="90">
  <defs
     id="defs4" />
  <sodipodi:namedview
     id="base"
     pagecolor="#333333"
     bordercolor="#666666"
     borderopacity="1.0"
     inkscape:pageopacity="0"
     inkscape:pageshadow="2"
     inkscape:zoom="7.9195959"
     inkscape:cx="10.263288"
     inkscape:cy="0.19739013"
     inkscape:document-units="px"
     inkscape:current-layer="layer1"
     showgrid="false"
     fit-margin-top="0"
     fit-margin-left="0"
     fit-margin-right="0"
     fit-margin-bottom="0"
     inkscape:window-width="1222"
     inkscape:window-height="776"
     inkscape:window-x="58"
     inkscape:window-y="-5"
     inkscape:window-maximized="1" />
  <metadata
     id="metadata7">
    <rdf:RDF>
      <cc:Work
         rdf:about="">
        <dc:format>image/svg+xml</dc:format>
        <dc:type
           rdf:resource="http://purl.org/dc/dcmitype/StillImage" />
        <dc:title></dc:title>
      </cc:Work>
    </rdf:RDF>
  </metadata>
  <g
     inkscape:label="Layer 1"
     inkscape:groupmode="layer"
     id="layer1"
     transform="translate(-2.5,-5.7150003)">
    <path
       style="fill:#ffffff;stroke:none"
       d="m 11.5,10.714889 c -3.9127408,0 -7,3.999852 -7,3.999852 0,0 3.0872592,4.00037 7,4.00037 2.992371,0 7,-4.00037 7,-4.00037 0,0 -4.007629,-3.999852 -7,-3.999852 z m 0,6.49237 c -1.373556,0 -2.4925186,-1.118443 -2.4925186,-2.492517 0,-1.374075 1.1189626,-2.492519 2.4925186,-2.492519 1.373556,0 2.492519,1.118964 2.492519,2.492519 0,1.373555 -1.118963,2.492517 -2.492519,2.492517 z m 0,-3.94748 c -0.803185,0 -1.454963,0.651258 -1.454963,1.454962 0,0.803705 0.651259,1.454962 1.454963,1.454962 0.803703,0 1.454963,-0.651257 1.454963,-1.454962 0,-0.803185 -0.651259,-1.454962 -1.454963,-1.454962 z"
       id="path2985"
       inkscape:connector-curvature="0" />
    <g
       transform="matrix(0.80513526,-0.21573535,0.21573535,0.80513526,-209.31764,-821.49754)"
       id="layer1-8"
       inkscape:label="Layer 1"
       style="stroke:none">
      <path
         sodipodi:nodetypes="cccccccc"
         inkscape:connector-curvature="0"
         id="path3813"
         d="m 12.008755,1034.3644 1.361481,14.486 2.527192,-3.6271 2.991258,5.8889 c 0.916312,-0.5833 1.832244,-1.1664 2.748474,-1.7495 l -2.991304,-5.8885 4.062402,-0.5669 z"
         style="fill:#ffffff;fill-opacity:1;stroke:none" />
    </g>
  </g>
</svg>
